<?xml version="1.0" encoding="UTF-8" standalone="no"?>
<svg
   height="240"
   width="240"
   version="1.1"
   id="Layer_1"
   viewBox="0 0 614.4 614.4"
   xml:space="preserve"
   fill="#000000"
   sodipodi:docname="BIBLE.svg"
   inkscape:version="1.4.2 (ebf0e940d0, 2025-05-08)"
   inkscape:export-filename="BIBLE.png"
   inkscape:export-xdpi="96"
   inkscape:export-ydpi="96"
   xmlns:inkscape="http://www.inkscape.org/namespaces/inkscape"
   xmlns:sodipodi="http://sodipodi.sourceforge.net/DTD/sodipodi-0.dtd"
   xmlns="http://www.w3.org/2000/svg"
   xmlns:svg="http://www.w3.org/2000/svg"><defs
     id="defs7" /><sodipodi:namedview
     id="namedview7"
     pagecolor="#ffffff"
     bordercolor="#000000"
     borderopacity="0.25"
     inkscape:showpageshadow="2"
     inkscape:pageopacity="0.0"
     inkscape:pagecheckerboard="0"
     inkscape:deskcolor="#d1d1d1"
     showgrid="false"
     inkscape:export-bgcolor="#4b777eff"
     inkscape:zoom="2.9097444"
     inkscape:cx="77.670052"
     inkscape:cy="140.73401"
     inkscape:window-width="1896"
     inkscape:window-height="1030"
     inkscape:window-x="0"
     inkscape:window-y="0"
     inkscape:window-maximized="0"
     inkscape:current-layer="SVGRepo_iconCarrier" /><g
     id="SVGRepo_bgCarrier"
     stroke-width="0" /><g
     id="SVGRepo_tracerCarrier"
     stroke-linecap="round"
     stroke-linejoin="round" /><g
     id="SVGRepo_iconCarrier"
     transform="translate(51.2,51.2)"> <path
   style="fill:#b77423"
   d="M 459.698,0 V 375.266 L 104.865,421.063 52.3,427.843 V 52.565 C 52.3,38.052 58.185,24.917 67.695,15.395 77.218,5.885 90.353,0 104.866,0 Z"
   id="path1" /> <path
   style="fill:#a86522"
   d="m 104.866,0 v 421.063 l -52.565,6.78 V 52.565 c 0,-14.513 5.885,-27.648 15.395,-37.17 C 77.218,5.885 90.353,0 104.866,0 Z"
   id="path2" /> <path
   style="fill:#995c0d"
   d="m 126.229,480.409 h -21.363 c -14.513,0 -27.648,-5.885 -37.17,-15.395 -9.51,-9.522 -15.395,-22.669 -15.395,-37.182 0,-29.025 23.54,-52.565 52.565,-52.565 H 420.281 459.7 V 480.409 H 201.558"
   id="path3" /> <path
   style="fill:#e6e6e6"
   d="m 420.28,375.266 v 68.843 H 82.149 v -63.7 c 6.874,-3.296 14.583,-5.144 22.716,-5.144 z"
   id="path4" /> <path
   style="fill:#cccccc"
   d="M 420.282,375.266 V 393.31 H 104.867 c -8.133,0 -15.843,1.848 -22.716,5.144 v -18.043 c 6.874,-3.296 14.583,-5.144 22.716,-5.144 z"
   id="path5" /> <path
   style="fill:#e6e6e6"
   d="M 418.4,291.001 V 82.176 c -22.692,0 -41.087,-18.395 -41.087,-41.087 H 189.138 c 0,22.692 -18.395,41.087 -41.087,41.087 v 208.825 c 22.692,0 41.087,18.395 41.087,41.087 h 188.174 c -0.001,-22.691 18.395,-41.087 41.088,-41.087 z"
   id="path6" /> <polygon
   style="fill:#f7b239"
   points="294.995,158.341 347.96,158.341 347.96,134.8 294.995,134.8 294.995,80.658 271.455,80.658 271.455,134.8 218.489,134.8 218.489,158.341 271.455,158.341 271.455,292.52 294.995,292.52 "
   id="polygon6" /> <polygon
   style="fill:#f95428"
   points="201.558,512 163.894,488.46 126.229,512 126.229,409.6 201.558,409.6 "
   id="polygon7" /> </g></svg>
